<svg id="Group_118" data-name="Group 118" xmlns="http://www.w3.org/2000/svg" xmlns:xlink="http://www.w3.org/1999/xlink" viewBox="1148.967 3415.148 103.033 110.655">
  <defs>
    <style>
      .cls-1 {
        fill: #fff;
        fill-rule: evenodd;
      }

      .cls-2 {
        fill: none;
        stroke: #ff001f;
        stroke-width: 2px;
      }

      .cls-3 {
        filter: url(#Path_300);
      }
    </style>
    <filter id="Path_300" x="1148.967" y="3415.148" width="103.033" height="110.655" filterUnits="userSpaceOnUse">
      <feOffset dy="10" input="SourceAlpha"/>
      <feGaussianBlur stdDeviation="10" result="blur"/>
      <feFlood flood-color="#ff001f" flood-opacity="0.102"/>
      <feComposite operator="in" in2="blur"/>
      <feComposite in="SourceGraphic"/>
    </filter>
  </defs>
  <g class="cls-3" transform="matrix(1, 0, 0, 1, 0, 0)">
    <path id="Path_300-2" data-name="Path 300" class="cls-1" d="M19.715,50.278,2.451,42.221A4.236,4.236,0,0,1,0,38.363V12.339A4.236,4.236,0,0,1,2.451,8.481L19.715.425a4.258,4.258,0,0,1,3.6,0L40.582,8.481a4.282,4.282,0,0,1,2.451,3.858V38.385a4.259,4.259,0,0,1-2.451,3.858L23.317,50.3A4.337,4.337,0,0,1,19.715,50.278Z" transform="translate(1178.97 3435.12)"/>
  </g>
  <path id="Path_4" data-name="Path 4" class="cls-2" d="M11.068,0,0,11.068,11.068,22.136" transform="translate(1206 3471.468) rotate(180)"/>
</svg>
