<svg xmlns="http://www.w3.org/2000/svg" xmlns:xlink="http://www.w3.org/1999/xlink" viewBox="-101 5392.666 498 572.985">
  <defs>
    <style>
      .cls-1 {
        fill: url(#linear-gradient);
      }
    </style>
    <linearGradient id="linear-gradient" x1="0.745" y1="0.132" x2="0.546" y2="1.05" gradientUnits="objectBoundingBox">
      <stop offset="0" stop-color="#ff001f" stop-opacity="0"/>
      <stop offset="1" stop-color="#ff001f" stop-opacity="0.031"/>
    </linearGradient>
  </defs>
  <path id="Path_293" data-name="Path 293" class="cls-1" d="M248.895,573.035a77.993,77.993,0,0,1-32.9-7.382h0L45.139,485.922A77.9,77.9,0,0,1,0,415.261V157.718A78.134,78.134,0,0,1,45.139,87.058L215.99,7.327a78.509,78.509,0,0,1,66.02,0L452.861,87.058A78.365,78.365,0,0,1,498,157.718V415.472a78.134,78.134,0,0,1-45.139,70.661L282.01,565.863A79.4,79.4,0,0,1,248.895,573.035Zm-2.742-72.348a5.809,5.809,0,0,0,5.273,0l170.851-79.731a6.217,6.217,0,0,0,3.586-5.7V157.718a6.352,6.352,0,0,0-3.586-5.7L251.426,72.293a5.809,5.809,0,0,0-5.273,0L75.3,152.023a6.216,6.216,0,0,0-3.586,5.7V415.472a6.352,6.352,0,0,0,3.586,5.695Z" transform="translate(397 5965.7) rotate(180)"/>
</svg>
