<svg id="Group_108" data-name="Group 108" xmlns="http://www.w3.org/2000/svg" xmlns:xlink="http://www.w3.org/1999/xlink" viewBox="123 1872.758 102.521 115.083">
  <defs>
    <style>
      .cls-1 {
        fill: none;
        stroke: #ff001f;
        stroke-width: 2px;
        fill-rule: evenodd;
      }

      .cls-2 {
        filter: url(#Path_261);
      }
    </style>
    <filter id="Path_261" x="123" y="1872.758" width="102.521" height="115.083" filterUnits="userSpaceOnUse">
      <feOffset dy="2" input="SourceAlpha"/>
      <feGaussianBlur stdDeviation="5" result="blur"/>
      <feFlood flood-color="#ff001f" flood-opacity="0.192"/>
      <feComposite operator="in" in2="blur"/>
      <feComposite in="SourceGraphic"/>
    </filter>
  </defs>
  <g class="cls-2" transform="matrix(1, 0, 0, 1, 0, 0)">
    <path id="Path_261-2" data-name="Path 261" class="cls-1" d="M32.309,82.378,4.017,69.175A6.941,6.941,0,0,1,0,62.853V20.205a6.941,6.941,0,0,1,4.017-6.322L32.309.68a6.978,6.978,0,0,1,5.9,0L66.5,13.883a7.017,7.017,0,0,1,4.017,6.322V62.888A6.979,6.979,0,0,1,66.5,69.21l-28.292,13.2A7.108,7.108,0,0,1,32.309,82.378Z" transform="translate(139 1886.77)"/>
  </g>
  <g id="sewing-machine" transform="translate(155.936 1906.923)">
    <g id="Group_75" data-name="Group 75" transform="translate(-1 -1)">
      <g id="Group_74" data-name="Group 74">
        <path id="Path_239" data-name="Path 239" d="M39.984,14.818a2.16,2.16,0,0,0,2.157-2.157v-3.6a2.16,2.16,0,0,0-2.157-2.157H38.546V5.472A2.856,2.856,0,0,0,37.7,3.436a2.888,2.888,0,0,0-2.03-.841h0V-.281A.719.719,0,0,0,34.951-1a.719.719,0,0,0-.719.719V2.6H32.794V-.281A.719.719,0,0,0,32.075-1a.719.719,0,0,0-.719.719V2.6H29.918V-.281A.719.719,0,0,0,29.2-1a.719.719,0,0,0-.719.719V2.6H8.347V1.157h.719a.719.719,0,0,0,0-1.438H6.19a.719.719,0,0,0,0,1.438h.719V2.6H1.873A2.872,2.872,0,0,0-1,5.471V14.1a.718.718,0,0,0,.036.223L1.6,22.641A2.16,2.16,0,0,0,3.65,24.166h.383v2.157a2.161,2.161,0,0,0,1.438,2.033v3a.719.719,0,1,0,1.438,0v-3a2.161,2.161,0,0,0,1.438-2.033V24.165h.72a2.167,2.167,0,0,0,2.156-2.157v-7.19h12.4l-2.25,17.975H1.157A2.16,2.16,0,0,0-1,34.951v4.314a2.879,2.879,0,0,0,2.876,2.876H39.265a2.879,2.879,0,0,0,2.876-2.876V34.951a2.16,2.16,0,0,0-2.157-2.157H38.546V14.818Zm0-6.471a.72.72,0,0,1,.719.719v3.6a.72.72,0,0,1-.719.719H38.546V8.347h1.438ZM6.909,22.727H5.471V4.033H6.909V22.727Zm-3.254,0h0a.714.714,0,0,1-.679-.506L.438,13.991V5.47A1.436,1.436,0,0,1,1.875,4.033H4.033V22.727Zm3.254,3.6a.719.719,0,1,1-1.438,0V24.166H6.909v2.157Zm2.876-4.316a.724.724,0,0,1-.719.721H8.347V4.033H35.673a1.436,1.436,0,0,1,1.435,1.438V13.38H10.5a.719.719,0,0,0-.719.719Zm5.033,18.7H4.033v-3.6H14.818ZM40.7,34.951v4.314A1.44,1.44,0,0,1,39.265,40.7H16.256v-3.6a1.439,1.439,0,0,0-1.438-1.438H4.033A1.439,1.439,0,0,0,2.6,37.108v3.6H1.876A1.44,1.44,0,0,1,.438,39.265V34.951a.72.72,0,0,1,.719-.719H39.984A.719.719,0,0,1,40.7,34.951Zm-17.88-2.157,2.25-17.975H37.108V32.794Z" transform="translate(1 1)"/>
        <path id="Path_240" data-name="Path 240" d="M346.085,263.533h-3.6a2.16,2.16,0,0,0-2.157,2.157v5.752a2.16,2.16,0,0,0,2.157,2.157h3.6a2.16,2.16,0,0,0,2.157-2.157V265.69A2.16,2.16,0,0,0,346.085,263.533Zm-3.6,1.438h3.6a.719.719,0,0,1,.719.719v2.157h-5.033V265.69A.719.719,0,0,1,342.49,264.971Zm3.6,7.19h-3.6a.719.719,0,0,1-.719-.719v-2.157H346.8v2.157A.719.719,0,0,1,346.085,272.161Z" transform="translate(-311.572 -241.244)"/>
        <path id="Path_241" data-name="Path 241" d="M127.719,82.271h24.446a.719.719,0,0,0,.719-.719V76.519a.719.719,0,0,0-.719-.719H127.719a.719.719,0,0,0-.719.719v5.033A.719.719,0,0,0,127.719,82.271Zm9.347-3.236a1.8,1.8,0,1,1,1.8,1.8A1.8,1.8,0,0,1,137.066,79.036Zm11.5,0a1.8,1.8,0,1,1-1.8-1.8A1.8,1.8,0,0,1,148.57,79.036Zm-4.486,1.8h-2.532a3.228,3.228,0,0,0,0-3.6h2.532a3.228,3.228,0,0,0,0,3.6Zm7.362,0h-1.985a3.228,3.228,0,0,0,0-3.6h1.985Zm-23.008-3.6h7.737a3.228,3.228,0,0,0,0,3.6h-7.737Z" transform="translate(-116.215 -69.329)"/>
      </g>
    </g>
  </g>
</svg>
