<svg id="Group_109" data-name="Group 109" xmlns="http://www.w3.org/2000/svg" xmlns:xlink="http://www.w3.org/1999/xlink" viewBox="123 1985.758 102.521 115.083">
  <defs>
    <style>
      .cls-1 {
        fill: none;
        stroke: #ff001f;
        stroke-width: 2px;
        fill-rule: evenodd;
      }

      .cls-2 {
        filter: url(#Path_260);
      }
    </style>
    <filter id="Path_260" x="123" y="1985.758" width="102.521" height="115.083" filterUnits="userSpaceOnUse">
      <feOffset dy="2" input="SourceAlpha"/>
      <feGaussianBlur stdDeviation="5" result="blur"/>
      <feFlood flood-color="#ff001f" flood-opacity="0.192"/>
      <feComposite operator="in" in2="blur"/>
      <feComposite in="SourceGraphic"/>
    </filter>
  </defs>
  <g class="cls-2" transform="matrix(1, 0, 0, 1, 0, 0)">
    <path id="Path_260-2" data-name="Path 260" class="cls-1" d="M32.309,82.378,4.017,69.175A6.941,6.941,0,0,1,0,62.853V20.205a6.941,6.941,0,0,1,4.017-6.322L32.309.68a6.978,6.978,0,0,1,5.9,0L66.5,13.883a7.017,7.017,0,0,1,4.017,6.322V62.888A6.979,6.979,0,0,1,66.5,69.21l-28.292,13.2A7.108,7.108,0,0,1,32.309,82.378Z" transform="translate(139 1999.77)"/>
  </g>
  <g id="spool-of-thread" transform="translate(153.593 2021.501)">
    <g id="Group_85" data-name="Group 85" transform="translate(-0.593 -1.001)">
      <g id="Group_84" data-name="Group 84">
        <path id="Path_246" data-name="Path 246" d="M260.936,33.425V7A2.358,2.358,0,0,0,258.6,4.667H255.34V1.337A2.374,2.374,0,0,0,252.932-1h-6.587a2.358,2.358,0,0,0-2.338,2.337V4.667h-3.329A2.358,2.358,0,0,0,238.34,7V33.5a2.358,2.358,0,0,0,2.337,2.337h3.4v3.329a2.358,2.358,0,0,0,2.337,2.337H253a2.47,2.47,0,0,0,2.408-2.337V35.833h3.258A2.273,2.273,0,0,0,260.936,33.425Zm-21.179,0V30.444l3.573,1.191-3.556,1.96A.87.87,0,0,1,239.757,33.425ZM259.309,6.361a.774.774,0,0,1,.21.644V9.263L244.5,18.14l-3.63-.968Zm-.893,16.957-3.655,2.015-15-4.167V18.342Zm-12-4.665,13.1-7.744v2.608l-9.955,5.975Zm6.57,7.658-3.168,1.747-10.063-2.684V22.636ZM245.018,30.7l-5.261-1.754V26.839l8.27,2.206Zm.141,1.54.075.025.027-.082,14.258-7.861v3.356l-11.337,6.664h-6.835Zm14.361-10.1-3.026-.807,3.026-1.893Zm0-4.371-4.9,3.065L251.47,20l8.049-4.831ZM256.981,6.083l-17.224,10.1V12.875l12.217-6.792h5.007ZM245.423,1.337a.954.954,0,0,1,.992-.921H253a.938.938,0,0,1,.921.921V4.667h-8.5Zm-4.746,4.746h8.381l-9.3,5.171V7A.938.938,0,0,1,240.677,6.083Zm13.175,33.079a.938.938,0,0,1-.921.921h-6.587a.938.938,0,0,1-.921-.921V35.833h8.429Zm4.746-4.817h-7.621l8.542-5.02v4.1A.938.938,0,0,1,258.6,34.346Z" transform="translate(-218.507 1)"/>
        <path id="Path_247" data-name="Path 247" d="M17.824-.293A.669.669,0,0,0,17.115-1a.669.669,0,0,0-.708.708,4.266,4.266,0,0,1-3.6,4.2l.062-.659a4.25,4.25,0,1,0-8.5.071l.06.637H3.657a4.25,4.25,0,1,0,0,8.5h1.57l1.2,12.75H3.657a4.25,4.25,0,0,0,0,8.5H7.232l.675,7.154a.712.712,0,0,0,1.417,0L10,33.707H14.99a.708.708,0,0,0,0-1.417h-4.86L11,23.082h2.576a4.25,4.25,0,0,0,0-8.5H11.8l.869-9.233A5.685,5.685,0,0,0,17.824-.293ZM3.657,11.041a2.833,2.833,0,0,1,0-5.667h.9l.535,5.667Zm0,21.25a2.833,2.833,0,0,1,0-5.667H6.564L7.1,32.291Zm4.865,0L5.982,5.374H7.907v.708a.708.708,0,1,0,1.417,0V3.249a.708.708,0,1,0-1.417,0v.708H5.849l-.067-.708a2.834,2.834,0,0,1,5.667-.071L8.708,32.291H8.522ZM13.574,16a2.833,2.833,0,1,1,0,5.667H11.131L11.665,16h1.909Z" transform="translate(0.593 1.001)"/>
      </g>
    </g>
  </g>
</svg>
