<svg id="Group_110" data-name="Group 110" xmlns="http://www.w3.org/2000/svg" xmlns:xlink="http://www.w3.org/1999/xlink" viewBox="123 2100.758 102.521 115.083">
  <defs>
    <style>
      .cls-1 {
        fill: none;
        stroke: #ff001f;
        stroke-width: 2px;
        fill-rule: evenodd;
      }

      .cls-2 {
        filter: url(#Path_259);
      }
    </style>
    <filter id="Path_259" x="123" y="2100.758" width="102.521" height="115.083" filterUnits="userSpaceOnUse">
      <feOffset dy="2" input="SourceAlpha"/>
      <feGaussianBlur stdDeviation="5" result="blur"/>
      <feFlood flood-color="#ff001f" flood-opacity="0.192"/>
      <feComposite operator="in" in2="blur"/>
      <feComposite in="SourceGraphic"/>
    </filter>
  </defs>
  <g class="cls-2" transform="matrix(1, 0, 0, 1, 0, 0)">
    <path id="Path_259-2" data-name="Path 259" class="cls-1" d="M32.309,82.378,4.017,69.175A6.941,6.941,0,0,1,0,62.853V20.205a6.941,6.941,0,0,1,4.017-6.322L32.309.68a6.978,6.978,0,0,1,5.9,0L66.5,13.883a7.017,7.017,0,0,1,4.017,6.322V62.888A6.979,6.979,0,0,1,66.5,69.21l-28.292,13.2A7.108,7.108,0,0,1,32.309,82.378Z" transform="translate(139 2114.77)"/>
  </g>
  <g id="customer-support" transform="translate(156 2133.802)">
    <g id="Group_89" data-name="Group 89" transform="translate(22.401 0.214)">
      <g id="Group_88" data-name="Group 88" transform="translate(0 0)">
        <path id="Path_252" data-name="Path 252" d="M292.422.214H278.294a2.534,2.534,0,0,0-2.531,2.531V12.4a2.534,2.534,0,0,0,2.531,2.531h.49v2.219a1.027,1.027,0,0,0,1.754.726l2.946-2.946h8.939a2.534,2.534,0,0,0,2.531-2.531V2.745A2.534,2.534,0,0,0,292.422.214Zm0,13.406h-8.956a1.257,1.257,0,0,0-.894.37l-2.482,2.482V14.884a1.266,1.266,0,0,0-1.264-1.265h-.532a1.226,1.226,0,0,1-1.225-1.225V2.745a1.226,1.226,0,0,1,1.225-1.225h14.128a1.226,1.226,0,0,1,1.225,1.225V12.4h0A1.226,1.226,0,0,1,292.422,13.62Z" transform="translate(-275.763 -0.214)"/>
      </g>
    </g>
    <g id="Group_91" data-name="Group 91" transform="translate(31.199 10.021)">
      <g id="Group_90" data-name="Group 90">
        <path id="Path_253" data-name="Path 253" d="M385.565,121.2a.825.825,0,0,0-.612-.258.853.853,0,0,0-.617.253.847.847,0,0,0,0,1.219.842.842,0,0,0,.618.258.824.824,0,0,0,.612-.258.854.854,0,0,0,0-1.213Z" transform="translate(-384.077 -120.945)"/>
      </g>
    </g>
    <g id="Group_93" data-name="Group 93" transform="translate(30.02 3.472)">
      <g id="Group_92" data-name="Group 92">
        <path id="Path_254" data-name="Path 254" d="M373.5,40.844a2.694,2.694,0,0,0-1.73-.528,2.486,2.486,0,0,0-1.629.483,1.35,1.35,0,0,0-.584,1.022.574.574,0,0,0,.207.472.717.717,0,0,0,.464.168.475.475,0,0,0,.336-.124,1.013,1.013,0,0,0,.213-.274.709.709,0,0,1,.325-.275,1.388,1.388,0,0,1,.627-.124,1.253,1.253,0,0,1,.728.194.638.638,0,0,1,.28.559.8.8,0,0,1-.124.415,1.59,1.59,0,0,1-.225.3,4.378,4.378,0,0,1-.359.3q-.259.2-.292.232a2.1,2.1,0,0,0-.753,1.682.926.926,0,0,0,.135.587.619.619,0,0,0,.483.155q.663,0,.663-.461a3.674,3.674,0,0,1,.028-.534,1.161,1.161,0,0,1,.169-.4,1.876,1.876,0,0,1,.434-.466,2.685,2.685,0,0,0,1.268-2.056A1.628,1.628,0,0,0,373.5,40.844Z" transform="translate(-369.555 -40.316)"/>
      </g>
    </g>
    <g id="Group_96" data-name="Group 96" transform="translate(0 9.949)">
      <g id="Group_95" data-name="Group 95">
        <g id="Group_94" data-name="Group 94">
          <path id="Path_255" data-name="Path 255" d="M22.521,142.846l-3.032-.594a2.633,2.633,0,0,1-.973-.4.637.637,0,0,0-.065-.044,1.712,1.712,0,0,1-.758-1.37v-1.26a6.858,6.858,0,0,0,1.16-1.147,2.746,2.746,0,0,0,2.687-2.649,1.776,1.776,0,0,0,1.214-1.682v-3.333a1.775,1.775,0,0,0-1.15-1.659.653.653,0,0,0,.39-.777,11.655,11.655,0,0,0-2.983-5.453,7.933,7.933,0,0,0-5.15-2.424,8.349,8.349,0,0,0-5.414,1.972,8.9,8.9,0,0,0-1.863,2.249v0l0,.007,0,.006h0a7.872,7.872,0,0,0-1.184,4.442A1.777,1.777,0,0,0,4.3,130.371V133.7a1.776,1.776,0,0,0,1.774,1.774h.857A6.82,6.82,0,0,0,9.6,139.355v1.085a1.712,1.712,0,0,1-.758,1.37.653.653,0,0,0-.065.044,2.632,2.632,0,0,1-.974.4l-3.032.594C1.962,143.4,0,145.5,0,147.964v3.259a.653.653,0,0,0,.653.653H26.639a.653.653,0,0,0,.653-.653v-3.259C27.292,145.5,25.33,143.4,22.521,142.846Zm-2.64-6.613a6.732,6.732,0,0,0,.241-.756h.1A1.43,1.43,0,0,1,19.881,136.233Zm1.565-5.862V133.7a.468.468,0,0,1-.468.468H20.33V129.9h.649A.468.468,0,0,1,21.446,130.371ZM9.292,123.025a7.147,7.147,0,0,1,4.5-1.662,6.67,6.67,0,0,1,4.31,2.058,10.383,10.383,0,0,1,2.63,4.855.649.649,0,0,0,.2.321H20.3a.652.652,0,0,0-.978-.364l-.007,0a7.67,7.67,0,0,1-3.252.741,9.652,9.652,0,0,1-6.038-2.192L7.955,124.55A7.344,7.344,0,0,1,9.292,123.025ZM6.727,133.809v.363H6.079a.468.468,0,0,1-.468-.468v-3.332a.468.468,0,0,1,.468-.468h.649Zm.5-5.661a.65.65,0,0,0-.229.1c-.1.045-.206.087-.312.127a6.527,6.527,0,0,1,.546-2.538,13.343,13.343,0,0,0,1.357,1.437,7.278,7.278,0,0,1-1.086.731C7.415,128.057,7.323,128.1,7.23,128.147Zm.8,5.661v-4.6l.09-.047a8.815,8.815,0,0,0,1.5-1.04,10.871,10.871,0,0,0,6.445,2.164,10.5,10.5,0,0,0,2.957-.492v4.017a5.461,5.461,0,0,1-.844,2.921H14.164a.653.653,0,0,0,0,1.306h2.871a5.492,5.492,0,0,1-9-4.227ZM25.986,150.57H22.372v-1.11a.653.653,0,0,0-1.306,0v1.11H6.231v-1.11a.653.653,0,0,0-1.306,0v1.11H1.306v-2.605c0-1.831,1.528-3.408,3.715-3.836l3.032-.594a4.038,4.038,0,0,0,1.065-.366,7.466,7.466,0,0,0,1.258.779.653.653,0,1,0,.574-1.174,6.126,6.126,0,0,1-.76-.442,2.9,2.9,0,0,0,.715-1.891v-.357a6.786,6.786,0,0,0,5.48-.1v.462a2.9,2.9,0,0,0,.714,1.891,6.143,6.143,0,0,1-3.454,1.064,6.234,6.234,0,0,1-.752-.045.653.653,0,1,0-.158,1.3,7.541,7.541,0,0,0,.91.055,7.448,7.448,0,0,0,4.525-1.533,4.038,4.038,0,0,0,1.067.367l3.032.594c2.188.428,3.715,2.006,3.715,3.836v2.605Z" transform="translate(0 -120.055)"/>
          <path id="Path_256" data-name="Path 256" d="M139.787,302.55a3.1,3.1,0,0,0,2.2-.908.609.609,0,0,0-.862-.862,1.889,1.889,0,0,1-2.668,0,.609.609,0,1,0-.862.862A3.1,3.1,0,0,0,139.787,302.55Z" transform="translate(-126.25 -285.936)"/>
        </g>
      </g>
    </g>
    <g id="Group_98" data-name="Group 98" transform="translate(10.481 20.466)">
      <g id="Group_97" data-name="Group 97">
        <circle id="Ellipse_38" data-name="Ellipse 38" cx="0.609" cy="0.609" r="0.609"/>
      </g>
    </g>
    <g id="Group_100" data-name="Group 100" transform="translate(15.115 20.466)">
      <g id="Group_99" data-name="Group 99">
        <circle id="Ellipse_39" data-name="Ellipse 39" cx="0.609" cy="0.609" r="0.609"/>
      </g>
    </g>
  </g>
</svg>
