<svg id="Group_114" data-name="Group 114" xmlns="http://www.w3.org/2000/svg" xmlns:xlink="http://www.w3.org/1999/xlink" viewBox="494 1872.758 102.521 115.083">
  <defs>
    <style>
      .cls-1 {
        fill: none;
        stroke: #ff001f;
        stroke-width: 2px;
        fill-rule: evenodd;
      }

      .cls-2 {
        filter: url(#Path_264);
      }
    </style>
    <filter id="Path_264" x="494" y="1872.758" width="102.521" height="115.083" filterUnits="userSpaceOnUse">
      <feOffset dy="2" input="SourceAlpha"/>
      <feGaussianBlur stdDeviation="5" result="blur"/>
      <feFlood flood-color="#ff001f" flood-opacity="0.192"/>
      <feComposite operator="in" in2="blur"/>
      <feComposite in="SourceGraphic"/>
    </filter>
  </defs>
  <g class="cls-2" transform="matrix(1, 0, 0, 1, 0, 0)">
    <path id="Path_264-2" data-name="Path 264" class="cls-1" d="M32.309,82.378,4.017,69.175A6.941,6.941,0,0,1,0,62.853V20.205a6.941,6.941,0,0,1,4.017-6.322L32.309.68a6.978,6.978,0,0,1,5.9,0L66.5,13.883a7.017,7.017,0,0,1,4.017,6.322V62.888A6.979,6.979,0,0,1,66.5,69.21l-28.292,13.2A7.108,7.108,0,0,1,32.309,82.378Z" transform="translate(510 1886.77)"/>
  </g>
  <g id="palette" transform="translate(491.849 1903.285)">
    <g id="Group_73" data-name="Group 73" transform="translate(30.151 0)">
      <g id="Group_72" data-name="Group 72">
        <path id="Path_231" data-name="Path 231" d="M61.281,164.169l-.664,1.433c5.647,2.618,9.019,7.142,9.019,12.1,0,7.838-8.5,14.214-18.953,14.214S31.73,185.542,31.73,177.7c0-6.258,5.59-11.866,13.594-13.637l-.34-1.542c-8.734,1.933-14.834,8.174-14.834,15.179,0,8.709,9.211,15.794,20.532,15.794s20.532-7.085,20.532-15.794C71.215,172.113,67.5,167.053,61.281,164.169Z" transform="translate(-30.151 -146.482)"/>
        <path id="Path_232" data-name="Path 232" d="M93,250.46a7.872,7.872,0,0,0-3.482-6.335l-.941,1.271a6.337,6.337,0,0,1,2.843,5.064c0,3.919-4.251,7.107-9.476,7.107-3.8,0-7.228-1.7-8.724-4.338l-1.374.78c1.774,3.12,5.737,5.137,10.1,5.137C88.042,259.146,93,255.249,93,250.46Z" transform="translate(-67.731 -220.027)"/>
        <path id="Path_233" data-name="Path 233" d="M298.889,220.3a4.738,4.738,0,1,0,4.738,4.738A4.738,4.738,0,0,0,298.889,220.3Zm0,7.9a3.159,3.159,0,1,1,3.159-3.159A3.159,3.159,0,0,1,298.889,228.2Z" transform="translate(-268.091 -198.555)"/>
        <path id="Path_234" data-name="Path 234" d="M306.1,332.3a3.948,3.948,0,1,0,3.948,3.948A3.948,3.948,0,0,0,306.1,332.3Zm0,6.318a2.369,2.369,0,1,1,2.369-2.369A2.369,2.369,0,0,1,306.1,338.618Z" transform="translate(-275.302 -299.499)"/>
        <path id="Path_235" data-name="Path 235" d="M233.31,394.619a3.159,3.159,0,1,0-3.159-3.159A3.159,3.159,0,0,0,233.31,394.619Zm0-4.738a1.579,1.579,0,1,1-1.579,1.579A1.579,1.579,0,0,1,233.31,389.88Z" transform="translate(-210.409 -349.971)"/>
        <path id="Path_236" data-name="Path 236" d="M166.151,406.67a2.369,2.369,0,1,0,2.369-2.369A2.369,2.369,0,0,0,166.151,406.67Zm3.159,0a.79.79,0,1,1-.79-.79A.79.79,0,0,1,169.31,406.67Z" transform="translate(-152.726 -364.392)"/>
        <path id="Path_237" data-name="Path 237" d="M76,24.338a12.673,12.673,0,0,0-.287,1.951,10.646,10.646,0,0,1-.269,1.8c-.245.894-.948,1.83-1.77,1.83h-.032a.805.805,0,0,0-.765.521.79.79,0,0,0,.253.89,10.178,10.178,0,0,0,6.229,2.14,8.917,8.917,0,0,0,3.531-.7c3.22-1.388,4.3-5.133,4.635-8.186l9.934-6.113a.776.776,0,0,0,.237-.22L108.088,3.4a2.159,2.159,0,0,0-2.9-3.075l-15.661,9.7a.8.8,0,0,0-.257.258L83.2,20.134C80.111,19.967,76.764,21.306,76,24.338ZM106.014,1.667a.58.58,0,0,1,.781.826L96.938,16.574,91.2,10.837ZM90.087,11.954l5.694,5.694L86.9,23.114,84.62,20.838Zm-4.13,12.454c-.283,2.627-1.164,5.819-3.692,6.91a8.155,8.155,0,0,1-6.877-.4,4.549,4.549,0,0,0,1.579-2.409,11.945,11.945,0,0,0,.316-2.075,11.355,11.355,0,0,1,.245-1.711c.565-2.24,3.262-3.192,5.732-3.007Z" transform="translate(-68.617 0)"/>
        <rect id="Rectangle_67" data-name="Rectangle 67" width="1.579" height="5.694" transform="translate(23.251 16.353) rotate(56.312)"/>
        <rect id="Rectangle_68" data-name="Rectangle 68" width="6.167" height="1.579" transform="translate(27.033 13.344) rotate(-50.193)"/>
        <path id="Path_238" data-name="Path 238" d="M134.951,270.547l.246,1.56a5.324,5.324,0,0,0,4.185-3.653l-1.51-.456A3.765,3.765,0,0,1,134.951,270.547Z" transform="translate(-124.606 -241.543)"/>
        <rect id="Rectangle_69" data-name="Rectangle 69" width="1.579" height="1.251" transform="translate(13.622 24.376)"/>
      </g>
    </g>
  </g>
</svg>
