<svg id="Group_115" data-name="Group 115" xmlns="http://www.w3.org/2000/svg" xmlns:xlink="http://www.w3.org/1999/xlink" viewBox="494 1985.758 102.521 115.083">
  <defs>
    <style>
      .cls-1 {
        fill: none;
        stroke: #ff001f;
        stroke-width: 2px;
        fill-rule: evenodd;
      }

      .cls-2 {
        filter: url(#Path_263);
      }
    </style>
    <filter id="Path_263" x="494" y="1985.758" width="102.521" height="115.083" filterUnits="userSpaceOnUse">
      <feOffset dy="2" input="SourceAlpha"/>
      <feGaussianBlur stdDeviation="5" result="blur"/>
      <feFlood flood-color="#ff001f" flood-opacity="0.192"/>
      <feComposite operator="in" in2="blur"/>
      <feComposite in="SourceGraphic"/>
    </filter>
  </defs>
  <g id="Group_81" data-name="Group 81" transform="translate(528.77 2023.979)">
    <g id="Group_80" data-name="Group 80">
      <path id="Path_244" data-name="Path 244" d="M117.206,61.982a28.516,28.516,0,0,1-14.628-6.239.942.942,0,0,0-1.157-.009A30.6,30.6,0,0,1,86.83,61.963.943.943,0,0,0,86,62.9v3.994a.942.942,0,1,0,1.885,0V63.721a31.943,31.943,0,0,0,14.1-6.054A30.343,30.343,0,0,0,116.16,63.75v7.968a21.575,21.575,0,0,1-4.3,12.975,22.075,22.075,0,0,1-9.839,7.675,22.074,22.074,0,0,1-9.838-7.674,21.693,21.693,0,0,1-4.146-10.376.942.942,0,0,0-1.872.222,23.579,23.579,0,0,0,4.506,11.279,23.837,23.837,0,0,0,11.036,8.44.943.943,0,0,0,.63,0,23.837,23.837,0,0,0,11.037-8.441,23.447,23.447,0,0,0,4.671-14.1v-8.8A.942.942,0,0,0,117.206,61.982Z" transform="translate(-86 -55.54)"/>
    </g>
  </g>
  <g id="Group_113" data-name="Group 113">
    <g class="cls-2" transform="matrix(1, 0, 0, 1, 0, 0)">
      <path id="Path_263-2" data-name="Path 263" class="cls-1" d="M32.309,82.378,4.017,69.175A6.941,6.941,0,0,1,0,62.853V20.205a6.941,6.941,0,0,1,4.017-6.322L32.309.68a6.978,6.978,0,0,1,5.9,0L66.5,13.883a7.017,7.017,0,0,1,4.017,6.322V62.888A6.979,6.979,0,0,1,66.5,69.21l-28.292,13.2A7.108,7.108,0,0,1,32.309,82.378Z" transform="translate(510 1999.77)"/>
    </g>
    <g id="Group_78" data-name="Group 78" transform="translate(525 2018.745)">
      <path id="Path_243" data-name="Path 243" d="M84.642,8.105A23.814,23.814,0,0,1,67.038.814a4.806,4.806,0,0,0-.75-.672.943.943,0,0,0-.993,0,3.161,3.161,0,0,0-.5.444A26.91,26.91,0,0,1,60.116,4.3,24.5,24.5,0,0,1,46.942,8.105.942.942,0,0,0,46,9.048V21.412a27.2,27.2,0,0,0,5.415,16.352A28.251,28.251,0,0,0,65.521,48.215a.942.942,0,0,0,.542,0A28.251,28.251,0,0,0,80.169,37.764a27.2,27.2,0,0,0,5.415-16.352V9.048A.942.942,0,0,0,84.642,8.105ZM83.7,21.412a25.329,25.329,0,0,1-5.042,15.227,26.5,26.5,0,0,1-12.865,9.688,26.5,26.5,0,0,1-12.865-9.687,25.329,25.329,0,0,1-5.043-15.227V9.974A26.356,26.356,0,0,0,61.116,5.9,28.467,28.467,0,0,0,65.8,2.237,25.507,25.507,0,0,0,83.7,9.976Z" transform="translate(-46)"/>
    </g>
    <g id="Group_82" data-name="Group 82" transform="translate(535.316 2032.58)">
      <path id="Path_245" data-name="Path 245" d="M174.284,153.624a.943.943,0,0,0-.761-.641l-5.381-.782-2.406-4.876a.942.942,0,0,0-1.69,0L161.64,152.2l-5.381.782a.942.942,0,0,0-.522,1.608l3.894,3.8-.919,5.36a.942.942,0,0,0,1.368.993l4.813-2.531,4.812,2.531a.943.943,0,0,0,1.368-.993l-.919-5.36,3.894-3.8A.942.942,0,0,0,174.284,153.624Zm-5.8,3.758a.942.942,0,0,0-.271.834l.68,3.966-3.56-1.872a.943.943,0,0,0-.877,0l-3.561,1.873.68-3.966a.942.942,0,0,0-.271-.834l-2.881-2.808,3.982-.578a.943.943,0,0,0,.71-.516l1.78-3.608,1.78,3.607a.942.942,0,0,0,.71.516l3.982.578Z" transform="translate(-155.451 -146.799)"/>
    </g>
  </g>
</svg>
