<svg id="Group_111" data-name="Group 111" xmlns="http://www.w3.org/2000/svg" xmlns:xlink="http://www.w3.org/1999/xlink" viewBox="123 2216.758 102.521 115.083">
  <defs>
    <style>
      .cls-1 {
        fill: none;
        stroke: #ff001f;
        stroke-width: 2px;
        fill-rule: evenodd;
      }

      .cls-2 {
        filter: url(#Path_258);
      }
    </style>
    <filter id="Path_258" x="123" y="2216.758" width="102.521" height="115.083" filterUnits="userSpaceOnUse">
      <feOffset dy="2" input="SourceAlpha"/>
      <feGaussianBlur stdDeviation="5" result="blur"/>
      <feFlood flood-color="#ff001f" flood-opacity="0.192"/>
      <feComposite operator="in" in2="blur"/>
      <feComposite in="SourceGraphic"/>
    </filter>
  </defs>
  <g class="cls-2" transform="matrix(1, 0, 0, 1, 0, 0)">
    <path id="Path_258-2" data-name="Path 258" class="cls-1" d="M32.309,82.378,4.017,69.175A6.941,6.941,0,0,1,0,62.853V20.205a6.941,6.941,0,0,1,4.017-6.322L32.309.68a6.978,6.978,0,0,1,5.9,0L66.5,13.883a7.017,7.017,0,0,1,4.017,6.322V62.888A6.979,6.979,0,0,1,66.5,69.21l-28.292,13.2A7.108,7.108,0,0,1,32.309,82.378Z" transform="translate(139 2230.77)"/>
  </g>
  <g id="graphic-design" transform="translate(152.993 2251.478)">
    <g id="Group_71" data-name="Group 71" transform="translate(0.006 0)">
      <path id="Path_230" data-name="Path 230" d="M41.934,6.03,36.5.594a2.033,2.033,0,0,0-2.872,0L23.39,10.829a.656.656,0,0,0,.928.928L34.553,1.522a.718.718,0,0,1,1.016,0l5.436,5.436a.718.718,0,0,1,0,1.016L39.671,9.308l-3.5-3.5a.656.656,0,0,0-.928.928l3.5,3.5L37.219,11.76l-1.536-1.536a.656.656,0,1,0-.928.928l1.536,1.536-1.524,1.524L33.23,12.677a.656.656,0,1,0-.928.928l1.536,1.536-1.524,1.524-3.5-3.5a.656.656,0,0,0-.928.928l3.5,3.5-1.524,1.524-1.536-1.536a.656.656,0,1,0-.928.928l1.536,1.536-1.289,1.289-6.452-6.452,1.2-1.2a.656.656,0,1,0-.928-.928l-1.2,1.2L8.158,1.849a4.458,4.458,0,0,0-6.3,6.3L13.96,20.259.6,33.619a2.033,2.033,0,0,0,0,2.872l5.436,5.436a2.031,2.031,0,0,0,2.872,0L22.268,28.568l.952.952a.656.656,0,0,0,.928-.928l-1.313-1.313a.642.642,0,0,0-.2-.2L8.41,12.853l1.76-1.76,1.088,1.088a.656.656,0,1,0,.928-.928L11.1,10.165l1.76-1.76L19.8,15.346h0l7.315,7.315a.591.591,0,0,0,.128.128l9.739,9.739-1.76,1.76L25.4,24.465l-.017-.019-3.919-3.919-.02-.018L14.52,13.587a.656.656,0,0,0-.928.928l20.7,20.7-1.76,1.76L26.3,30.742a.656.656,0,0,0-.928.928l6.7,6.7a.663.663,0,0,0,.227.148l7.93,3.079a1.065,1.065,0,0,0,1.378-1.378l-3.082-7.926a.664.664,0,0,0-.148-.226l-9.8-9.8L41.934,8.9A2.033,2.033,0,0,0,41.934,6.03ZM21.34,27.64l-1.288,1.288-1.536-1.536a.656.656,0,0,0-.928.928l1.536,1.536L17.6,31.38l-3.5-3.5a.656.656,0,0,0-.928.928l3.5,3.5-1.524,1.524L13.611,32.3a.656.656,0,0,0-.928.928L14.22,34.76,12.7,36.284l-1.536-1.536a.656.656,0,0,0-.928.928l1.536,1.536-1.524,1.524-3.5-3.5a.656.656,0,1,0-.928.928l3.5,3.5L7.981,41a.718.718,0,0,1-1.016,0L1.529,35.563a.719.719,0,0,1,0-1.016L14.888,21.187ZM2.782,7.225A3.145,3.145,0,1,1,7.23,2.777L9.3,4.851,4.856,9.3ZM9.706,9.7h0L7.482,11.925l-1.7-1.7,4.448-4.448,1.7,1.7ZM40.178,40.17,33.711,37.66l3.953-3.953Z" transform="translate(-0.006 0)"/>
    </g>
  </g>
</svg>
