<svg id="Group_112" data-name="Group 112" xmlns="http://www.w3.org/2000/svg" xmlns:xlink="http://www.w3.org/1999/xlink" viewBox="494 2100.758 102.521 115.083">
  <defs>
    <style>
      .cls-1 {
        fill: none;
        stroke: #ff001f;
        stroke-width: 2px;
        fill-rule: evenodd;
      }

      .cls-2 {
        filter: url(#Path_262);
      }
    </style>
    <filter id="Path_262" x="494" y="2100.758" width="102.521" height="115.083" filterUnits="userSpaceOnUse">
      <feOffset dy="2" input="SourceAlpha"/>
      <feGaussianBlur stdDeviation="5" result="blur"/>
      <feFlood flood-color="#ff001f" flood-opacity="0.192"/>
      <feComposite operator="in" in2="blur"/>
      <feComposite in="SourceGraphic"/>
    </filter>
  </defs>
  <g class="cls-2" transform="matrix(1, 0, 0, 1, 0, 0)">
    <path id="Path_262-2" data-name="Path 262" class="cls-1" d="M32.309,82.378,4.017,69.175A6.941,6.941,0,0,1,0,62.853V20.205a6.941,6.941,0,0,1,4.017-6.322L32.309.68a6.978,6.978,0,0,1,5.9,0L66.5,13.883a7.017,7.017,0,0,1,4.017,6.322V62.888A6.979,6.979,0,0,1,66.5,69.21l-28.292,13.2A7.108,7.108,0,0,1,32.309,82.378Z" transform="translate(510 2114.77)"/>
  </g>
  <g id="_3d-printer" data-name="3d-printer" transform="translate(525 2135.675)">
    <g id="Group_87" data-name="Group 87">
      <g id="Group_86" data-name="Group 86">
        <path id="Path_248" data-name="Path 248" d="M38.374,0H1.951A1.954,1.954,0,0,0,0,1.951V35.772A1.949,1.949,0,0,0,1.3,37.6v1.42a1.3,1.3,0,0,0,1.3,1.3H5.2a1.3,1.3,0,0,0,1.3-1.3v-1.3H33.821v1.3a1.3,1.3,0,0,0,1.3,1.3h2.6a1.3,1.3,0,0,0,1.3-1.3V37.6a1.949,1.949,0,0,0,1.3-1.832V1.951A1.954,1.954,0,0,0,38.374,0ZM5.2,39.024H2.6v-1.3H5.2Zm32.52,0h-2.6v-1.3h2.6Zm1.3-3.252a.651.651,0,0,1-.65.65H1.951a.651.651,0,0,1-.65-.65V1.951a.651.651,0,0,1,.65-.65H38.374a.651.651,0,0,1,.65.65Z"/>
        <path id="Path_249" data-name="Path 249" d="M32,64.52H67.122V32H32ZM33.3,37.2H43.707V35.9H33.3V33.3h32.52v2.6H55.415v1.3H65.821V63.22H33.3Z" transform="translate(-29.398 -29.398)"/>
        <path id="Path_250" data-name="Path 250" d="M193.3,70.721l2.276,3.035h.325v3.252h1.3V73.756h.325l2.276-3.035V69.2h1.3V64H192v5.2h1.3Zm5.2-.433-1.626,2.168h-.65L194.6,70.287V69.2h3.9ZM193.3,65.3h6.5v2.6h-6.5Z" transform="translate(-176.39 -58.797)"/>
        <path id="Path_251" data-name="Path 251" d="M194.407,248.237v-6.711l-5.2-2.23-5.2,2.23v6.711l5.2,2.23Zm-1.3-.857-3.252,1.394v-4.438l3.252-1.394Zm-3.9-6.669,2.9,1.244-2.9,1.244-2.9-1.244Zm-.65,8.062-3.252-1.394v-4.438l3.252,1.394Z" transform="translate(-169.041 -219.841)"/>
        <rect id="Rectangle_70" data-name="Rectangle 70" width="13.008" height="1.301" transform="translate(13.659 31.22)"/>
        <rect id="Rectangle_71" data-name="Rectangle 71" width="1.301" height="1.301" transform="translate(26.667 21.463)"/>
        <rect id="Rectangle_72" data-name="Rectangle 72" width="1.301" height="1.301" transform="translate(29.268 21.463)"/>
        <rect id="Rectangle_73" data-name="Rectangle 73" width="1.301" height="1.301" transform="translate(31.87 21.463)"/>
        <rect id="Rectangle_74" data-name="Rectangle 74" width="1.301" height="1.301" transform="translate(7.154 21.463)"/>
        <rect id="Rectangle_75" data-name="Rectangle 75" width="1.301" height="1.301" transform="translate(9.756 21.463)"/>
        <rect id="Rectangle_76" data-name="Rectangle 76" width="1.301" height="1.301" transform="translate(12.358 21.463)"/>
      </g>
    </g>
  </g>
</svg>
