<svg id="Group_108" data-name="Group 108" xmlns="http://www.w3.org/2000/svg" xmlns:xlink="http://www.w3.org/1999/xlink" viewBox="637 36.258 91.705 103.035">
  <defs>
    <style>
      .cls-1 {
        fill: #ff001f;
      }

      .cls-2 {
        clip-path: url(#clip-path);
      }

      .cls-3 {
        fill: #fff;
      }
    </style>
    <clipPath id="clip-path">
      <path id="Path_228" data-name="Path 228" d="M64.733,85.654l-27.7-12.927a6.87,6.87,0,0,1-3.933-6.19V24.783a6.833,6.833,0,0,1,3.933-6.19l27.7-12.927a6.832,6.832,0,0,1,5.779,0l27.7,12.927a6.87,6.87,0,0,1,3.933,6.19V66.572a6.833,6.833,0,0,1-3.933,6.19l-27.7,12.927A6.959,6.959,0,0,1,64.733,85.654Z" transform="translate(-33.1 -5.025)"/>
    </clipPath>
  </defs>
  <g id="Group_66" data-name="Group 66" transform="translate(637 126.497)">
    <path id="Path_220" data-name="Path 220" d="M0,271a1.187,1.187,0,0,1,1.2-1.2h4.07a4.412,4.412,0,0,1,0,8.823H2.325v2.325a1.079,1.079,0,0,1-1.129,1.2,1.187,1.187,0,0,1-1.2-1.2V271Zm2.325.992v4.377H5.266a2.19,2.19,0,0,0,0-4.377H2.325Z" transform="translate(0 -269.492)"/>
    <path id="Path_221" data-name="Path 221" d="M35.925,281.312a1.163,1.163,0,0,1-2.325.034V271.36a1.044,1.044,0,0,1,1.06-1.06h4.685a3.913,3.913,0,0,1,1.641,7.489l2.325,2.838a1.2,1.2,0,1,1-1.983,1.334l-2.667-3.8h-2.77v3.146Zm0-5.232h3.386c2.291,0,2.428-3.693,0-3.693H35.925Z" transform="translate(-22.11 -269.821)"/>
    <path id="Path_222" data-name="Path 222" d="M68.7,271.178a1.164,1.164,0,0,1,2.325,0v10.054a1.164,1.164,0,0,1-2.325,0Z" transform="translate(-45.206 -269.673)"/>
    <path id="Path_223" data-name="Path 223" d="M83.1,271.1c0-.65.137-1.265,1.06-1.265.65,0,.787.171,1.265.616l5.814,7.284V270.9a1.221,1.221,0,0,1,1.094-1.2,1.355,1.355,0,0,1,1.265,1.2v9.917a1.146,1.146,0,0,1-.923,1.2,1.781,1.781,0,0,1-1.436-.616l-5.814-7.387v6.805a1.071,1.071,0,0,1-1.094,1.2,1.149,1.149,0,0,1-1.2-1.2V271.1Z" transform="translate(-54.682 -269.426)"/>
    <path id="Path_224" data-name="Path 224" d="M122.457,272.257h-3.078a1.129,1.129,0,1,1,0-2.257h8.31a1.13,1.13,0,1,1,0,2.257h-2.907v8.891a1.163,1.163,0,1,1-2.325,0Z" transform="translate(-77.795 -269.624)"/>
    <path id="Path_225" data-name="Path 225" class="cls-1" d="M155.26,282.374a1.032,1.032,0,0,1-1.06-1.094v-9.986a1.033,1.033,0,0,1,1.06-1.094h4.959a3.306,3.306,0,0,1,3.557,3.351,2.864,2.864,0,0,1-.958,2.223,2.933,2.933,0,0,1,2.018,2.907c0,2.018-1.368,3.693-4,3.693H155.26Zm4.959-10.02h-3.728v2.633h3.728c.752,0,1.231-.479,1.231-1.4A1.225,1.225,0,0,0,160.219,272.354Zm-3.728,7.865H160.8a1.556,1.556,0,0,0,0-3.112h-4.309Z" transform="translate(-101.467 -269.755)"/>
    <path id="Path_226" data-name="Path 226" class="cls-1" d="M199.234,281.69a6.143,6.143,0,0,1-6.634-6.327c0-4.343,3.386-6.463,6.634-6.463a6.352,6.352,0,0,1,6.292,6.463A6.124,6.124,0,0,1,199.234,281.69Zm-.205-10.5a4.172,4.172,0,1,0,4.172,4.172A4.017,4.017,0,0,0,199.029,271.191Z" transform="translate(-126.735 -268.9)"/>
    <path id="Path_227" data-name="Path 227" class="cls-1" d="M242.074,274.395l3.078-3.83c.923-1.2,2.7.342,1.676,1.47-1.06,1.265-2.154,2.6-3.215,4l3.591,4.48a1.159,1.159,0,1,1-1.915,1.3l-3.249-4.138-3.18,4.241c-.889,1.3-2.873-.171-1.881-1.368l3.522-4.48c-1.094-1.4-2.189-2.736-3.249-4-1.094-1.334.958-2.667,1.744-1.436Z" transform="translate(-155.759 -269.71)"/>
  </g>
  <g id="Group_68" data-name="Group 68" transform="translate(648.319 36.258)">
    <g id="Group_67" data-name="Group 67" class="cls-2">
      <rect id="Rectangle_61" data-name="Rectangle 61" class="cls-1" width="72.499" height="84.707" transform="translate(-1.71 -1.718)"/>
    </g>
  </g>
  <path id="Path_229" data-name="Path 229" class="cls-3" d="M105.849,63.571,88.271,55.5h-19.7L51.03,63.571a2.5,2.5,0,0,0-1.265,3.317l3.488,8.071a2.576,2.576,0,0,0,2.838,1.5l5.164-1.026V99.581a2.561,2.561,0,0,0,2.565,2.565H93.162a2.561,2.561,0,0,0,2.565-2.565V75.437l5.164,1.026a2.537,2.537,0,0,0,2.838-1.5l3.42-8.036A2.575,2.575,0,0,0,105.849,63.571ZM87.28,58.236a10.139,10.139,0,0,1-17.783,0Zm17.646,7.729-3.488,8.071a.188.188,0,0,1-.171.1L93.23,72.53V99.615a.162.162,0,0,1-.171.171H63.786a.162.162,0,0,1-.171-.171V72.53l-8,1.607a.188.188,0,0,1-.171-.1l-3.488-8.071a.164.164,0,0,1,.068-.205L67.1,58.817a12.522,12.522,0,0,0,22.57-.034l15.15,6.976A.152.152,0,0,1,104.926,65.964Z" transform="translate(604.402 -1.981)"/>
</svg>
