<svg id="Group_116" data-name="Group 116" xmlns="http://www.w3.org/2000/svg" xmlns:xlink="http://www.w3.org/1999/xlink" viewBox="109 8036.751 205.37 91.493">
  <defs>
    <style>
      .cls-1 {
        fill: #fff;
      }

      .cls-2 {
        fill: #ff001f;
        fill-rule: evenodd;
      }

      .cls-3 {
        filter: url(#Path_294);
      }
    </style>
    <filter id="Path_294" x="109" y="8036.751" width="87" height="91.493" filterUnits="userSpaceOnUse">
      <feOffset dy="10" input="SourceAlpha"/>
      <feGaussianBlur stdDeviation="10" result="blur"/>
      <feFlood flood-color="#ff001f" flood-opacity="0.729"/>
      <feComposite operator="in" in2="blur"/>
      <feComposite in="SourceGraphic"/>
    </filter>
  </defs>
  <path id="Path_308" data-name="Path 308" class="cls-1" d="M11.152-23.8H2.38V0H6.29V-8.16h4.862a7.73,7.73,0,0,0,7.888-7.82A7.71,7.71,0,0,0,11.152-23.8Zm0,11.968H6.29v-8.3h4.862A3.922,3.922,0,0,1,15.13-15.98,3.942,3.942,0,0,1,11.152-11.832Zm14.382-2.312V-17H21.862V0h3.672V-8.568c0-3.808,2.822-4.93,5.236-4.76v-3.978A5.35,5.35,0,0,0,25.534-14.144Zm9.792-5.406A2.373,2.373,0,0,0,37.672-21.9a2.351,2.351,0,0,0-2.346-2.346A2.351,2.351,0,0,0,32.98-21.9,2.373,2.373,0,0,0,35.326-19.55ZM33.49,0h3.672V-17H33.49ZM50.354-17.442a5.853,5.853,0,0,0-5.27,2.618V-17H41.412V0h3.672V-9.112c0-3.468,1.9-4.9,4.318-4.9,2.312,0,3.808,1.36,3.808,3.944V0h3.672V-10.438C56.882-14.858,54.162-17.442,50.354-17.442Zm19.958,3.978V-17H66.1v-4.76l-3.672,1.088V-17H59.3v3.536h3.128V-5.3c0,4.42,2.244,5.984,7.888,5.3V-3.3c-2.788.136-4.216.17-4.216-2.006v-8.16Zm12.954-3.978a7.046,7.046,0,0,0-5.95,2.856V-23.8H73.644V0h3.672V-2.448a6.985,6.985,0,0,0,5.95,2.89A8.688,8.688,0,0,0,91.732-8.5,8.667,8.667,0,0,0,83.266-17.442ZM82.688-3.06A5.254,5.254,0,0,1,77.316-8.5a5.254,5.254,0,0,1,5.372-5.44A5.254,5.254,0,0,1,88.06-8.5,5.254,5.254,0,0,1,82.688-3.06Zm20.4,3.5A8.874,8.874,0,0,0,112.064-8.5a8.853,8.853,0,0,0-8.976-8.942A8.874,8.874,0,0,0,94.112-8.5,8.9,8.9,0,0,0,103.088.442Zm0-3.57a5.221,5.221,0,0,1-5.3-5.372,5.221,5.221,0,0,1,5.3-5.372,5.221,5.221,0,0,1,5.3,5.372A5.221,5.221,0,0,1,103.088-3.128ZM129.37,0l-6.358-8.7,6.052-8.3H124.78l-3.91,5.372L116.96-17h-4.25l6.052,8.262L112.37,0h4.284l4.25-5.814L125.12,0Z" transform="translate(185 8084)"/>
  <g class="cls-3" transform="matrix(1, 0, 0, 1, 0, 0)">
    <path id="Path_294-2" data-name="Path 294" class="cls-2" d="M11.952,31.225l-10-5c-.929-.425-2-.965-2-2v-17c0-1.035,1.071-1.575,2-2l10-5a4.645,4.645,0,0,1,3,0l10,5c.929.438,2,.978,2,2v17c0,1.035-1.071,1.562-2,2l-10,5A4.735,4.735,0,0,1,11.952,31.225Z" transform="translate(139.05 8056.77)"/>
  </g>
</svg>
