<svg xmlns="http://www.w3.org/2000/svg" viewBox="1128 82 18.388 18.388">
  <defs>
    <style>
      .cls-1 {
        fill-rule: evenodd;
      }
    </style>
  </defs>
  <path id="Path_3" data-name="Path 3" class="cls-1" d="M9.194,1.634a28.19,28.19,0,0,1,3.678.1,4.738,4.738,0,0,1,1.737.306A3.588,3.588,0,0,1,16.345,3.78a4.738,4.738,0,0,1,.306,1.737c0,.919.1,1.226.1,3.678a28.19,28.19,0,0,1-.1,3.678,4.738,4.738,0,0,1-.306,1.737,3.588,3.588,0,0,1-1.737,1.737,4.738,4.738,0,0,1-1.737.306c-.919,0-1.226.1-3.678.1a28.19,28.19,0,0,1-3.678-.1,4.738,4.738,0,0,1-1.737-.306,3.588,3.588,0,0,1-1.737-1.737,4.738,4.738,0,0,1-.306-1.737c0-.919-.1-1.226-.1-3.678a28.19,28.19,0,0,1,.1-3.678A4.738,4.738,0,0,1,2.043,3.78a3.669,3.669,0,0,1,.715-1.022A1.727,1.727,0,0,1,3.78,2.043a4.738,4.738,0,0,1,1.737-.306,28.19,28.19,0,0,1,3.678-.1M9.194,0a30.184,30.184,0,0,0-3.78.1A6.307,6.307,0,0,0,3.167.511,4,4,0,0,0,1.532,1.532,4,4,0,0,0,.511,3.167,4.654,4.654,0,0,0,.1,5.414,30.184,30.184,0,0,0,0,9.194a30.184,30.184,0,0,0,.1,3.78,6.307,6.307,0,0,0,.409,2.247,4,4,0,0,0,1.022,1.634,4,4,0,0,0,1.634,1.022,6.307,6.307,0,0,0,2.247.409,30.184,30.184,0,0,0,3.78.1,30.184,30.184,0,0,0,3.78-.1,6.307,6.307,0,0,0,2.247-.409,4.286,4.286,0,0,0,2.656-2.656,6.307,6.307,0,0,0,.409-2.247c0-1.022.1-1.328.1-3.78a30.184,30.184,0,0,0-.1-3.78,6.307,6.307,0,0,0-.409-2.247,4,4,0,0,0-1.022-1.634A4,4,0,0,0,15.221.511,6.307,6.307,0,0,0,12.974.1,30.184,30.184,0,0,0,9.194,0m0,4.495a4.623,4.623,0,0,0-4.7,4.7,4.7,4.7,0,1,0,4.7-4.7m0,7.764A3.01,3.01,0,0,1,6.129,9.194,3.01,3.01,0,0,1,9.194,6.129a3.01,3.01,0,0,1,3.065,3.065,3.01,3.01,0,0,1-3.065,3.065m4.9-9.092A1.124,1.124,0,1,0,15.221,4.29,1.134,1.134,0,0,0,14.1,3.167" transform="translate(1128 82)"/>
</svg>
