<svg xmlns="http://www.w3.org/2000/svg" viewBox="1205.028 84.533 21.972 12.537">
  <path id="vk" d="M10.751,122.408h1.313a1.107,1.107,0,0,0,.6-.262.956.956,0,0,0,.18-.577s-.026-1.762.792-2.022,1.842,1.7,2.939,2.457a2.079,2.079,0,0,0,1.46.445l2.935-.041s1.535-.095.808-1.3a9.8,9.8,0,0,0-2.182-2.524c-1.84-1.708-1.593-1.431.624-4.385,1.35-1.8,1.89-2.9,1.721-3.368-.161-.448-1.154-.33-1.154-.33l-3.3.019a.755.755,0,0,0-.427.076.93.93,0,0,0-.291.354,19.126,19.126,0,0,1-1.221,2.576c-1.471,2.5-2.06,2.63-2.3,2.475-.559-.361-.419-1.453-.419-2.228,0-2.421.367-3.431-.716-3.692a5.668,5.668,0,0,0-1.542-.154,7.133,7.133,0,0,0-2.741.28c-.376.184-.666.595-.489.618a1.481,1.481,0,0,1,.975.49,3.181,3.181,0,0,1,.327,1.5s.2,2.85-.455,3.2c-.446.243-1.058-.253-2.369-2.52a21.137,21.137,0,0,1-1.18-2.445.975.975,0,0,0-.272-.367,1.369,1.369,0,0,0-.508-.2l-3.14.019s-.471.014-.644.218c-.154.183-.012.559-.012.559s2.458,5.75,5.241,8.65a7.542,7.542,0,0,0,5.451,2.483Z" transform="translate(1205.028 -25.391)"/>
</svg>
